<svg width="18" height="24" viewBox="0 0 18 24" fill="none" xmlns="http://www.w3.org/2000/svg">
<path d="M8.99992 11.4166C8.22637 11.4166 7.4845 11.1093 6.93752 10.5623C6.39054 10.0153 6.08325 9.27347 6.08325 8.49992C6.08325 7.72637 6.39054 6.9845 6.93752 6.43752C7.4845 5.89054 8.22637 5.58325 8.99992 5.58325C9.77347 5.58325 10.5153 5.89054 11.0623 6.43752C11.6093 6.9845 11.9166 7.72637 11.9166 8.49992C11.9166 8.88294 11.8411 9.26221 11.6946 9.61608C11.548 9.96994 11.3332 10.2915 11.0623 10.5623C10.7915 10.8332 10.4699 11.048 10.1161 11.1946C9.76221 11.3411 9.38294 11.4166 8.99992 11.4166ZM8.99992 0.333252C6.83398 0.333252 4.75676 1.19367 3.22521 2.72521C1.69367 4.25676 0.833252 6.33398 0.833252 8.49992C0.833252 14.6249 8.99992 23.6666 8.99992 23.6666C8.99992 23.6666 17.1666 14.6249 17.1666 8.49992C17.1666 6.33398 16.3062 4.25676 14.7746 2.72521C13.2431 1.19367 11.1659 0.333252 8.99992 0.333252Z" fill="#251712"/>
</svg>
