<svg width="20" height="20" viewBox="0 0 20 20" fill="none" xmlns="http://www.w3.org/2000/svg">
<path d="M9.99996 5.41667C10.5525 5.41667 11.0824 5.63616 11.4731 6.02687C11.8638 6.41757 12.0833 6.94747 12.0833 7.5C12.0833 7.77359 12.0294 8.0445 11.9247 8.29726C11.82 8.55002 11.6666 8.77969 11.4731 8.97314C11.2796 9.1666 11.05 9.32006 10.7972 9.42475C10.5445 9.52945 10.2735 9.58334 9.99996 9.58334C9.44742 9.58334 8.91752 9.36384 8.52682 8.97314C8.13612 8.58244 7.91663 8.05254 7.91663 7.5C7.91663 6.94747 8.13612 6.41757 8.52682 6.02687C8.91752 5.63616 9.44742 5.41667 9.99996 5.41667ZM9.99996 1.66667C11.5471 1.66667 13.0308 2.28125 14.1247 3.37522C15.2187 4.46918 15.8333 5.95291 15.8333 7.5C15.8333 11.875 9.99996 18.3333 9.99996 18.3333C9.99996 18.3333 4.16663 11.875 4.16663 7.5C4.16663 5.95291 4.78121 4.46918 5.87517 3.37522C6.96913 2.28125 8.45286 1.66667 9.99996 1.66667ZM9.99996 3.33334C8.89489 3.33334 7.83508 3.77232 7.05368 4.55373C6.27228 5.33513 5.83329 6.39494 5.83329 7.5C5.83329 8.33334 5.83329 10 9.99996 15.5917C14.1666 10 14.1666 8.33334 14.1666 7.5C14.1666 6.39494 13.7276 5.33513 12.9462 4.55373C12.1648 3.77232 11.105 3.33334 9.99996 3.33334Z" fill="#F7F7F7"/>
</svg>
